# xmcd
#
# Track frame offsets: 
#        150
#        10490
#        30048
#        50456
#        72163
#        95538
#        122963
#        138823
#        154471
#        179444
#        202300
#        216585
#        234707
#        254956
#        274284
#        304433
#        323993
#        339735
#
# Disc length: 4781 seconds
#
# Revision: 3
# Processed by: cddbd v1.5.2PL0 Copyright (c) Steve Scherf et al.
# Submitted via: ExactAudioCopy v1.1
#
DISCID=2612ab12
DTITLE=Various Artist - Akella Presents - Blues Instrumental - vol.20  CD2  N
DTITLE=ew!
DYEAR=2013
DGENRE=Blues
TTITLE0=CHRIS BELL and 100% Blues - Cotton Pickin' Blues
TTITLE1=IKE TURNER - Jazzy Fuzzy
TTITLE2=BLUES COMPANY - Dinner At Woolfies
TTITLE3=BERNIE MARSDEN - Latino Pressuro Bambino
TTITLE4=CHARLIE MUSSELWHITE - Yesterdays
TTITLE5=DUKE ROBILLARD - Dark Eyes
TTITLE6=MICK CLARKE - Walking in the Dark
TTITLE7=PETER FRAMPTON - Boot It Up
TTITLE8=INNES SIBUN - Desert rain
TTITLE9=PAUL CAMILLERI - Mister P.C.
TTITLE10=RUDY ROTTA - Papa Grooves Funk
TTITLE11=BLEU JACKSON - Indigo
TTITLE12=KRIS POHLMANN - One for Sorrow
TTITLE13=RICK VITO - Exotica By Night
TTITLE14=TOM PRINCIPATO - Tango'd Up In The Blues
TTITLE15=MICK CLARKE - Cry To Me
TTITLE16=DEREK MILLER - Corn Cob Soup [instrumental]
TTITLE17=DANNY BRYANT - Memories
EXTD=
EXTT0=
EXTT1=
EXTT2=
EXTT3=
EXTT4=
EXTT5=
EXTT6=
EXTT7=
EXTT8=
EXTT9=
EXTT10=
EXTT11=
EXTT12=
EXTT13=
EXTT14=
EXTT15=
EXTT16=
EXTT17=
PLAYORDER=
